{"title":"Zumbo's Just Desserts - S01E09 - Fruit Dessert","uid":15861062,"size":428820265,"categoryP":"video","categoryS":"tv_shows","magnet":"?xt=urn:btih:d92cec09a474e9850a4c95a48eb86e8b1a948e7e&amp;dn=Zumbo%27s+Just+Desserts+-+S01E09+-+Fruit+Dessert&amp;tr=udp%3A%2F%2Ftracker.leechers-paradise.org%3A6969&amp;tr=udp%3A%2F%2Fzer0day.ch%3A1337&amp;tr=udp%3A%2F%2Fopen.demonii.com%3A1337&amp;tr=udp%3A%2F%2Ftracker.coppersurfer.tk%3A6969&amp;tr=udp%3A%2F%2Fexodus.desync.com%3A6969","seeders":10,"leechers":5,"uploader":"Bullrout","files":1,"time":1474295068,"description":"Zumbo's Just Desserts - S01E09 - Fruit Dessert\r\n\r\nThe remaining dessert makers must tap into their natural talent. To make it to the end, they'll not only need to draw on everything they've learned but also trust their natural instincts.\r\n\r\nComplete name                            : Zumbo's Just Desserts - S01E09 - Fruit Dessert.mp4\r\nFormat                                   : MPEG-4\r\nFormat profile                           : Base Media / Version 2\r\nCodec ID                                 : mp42 (mp42/isom/avc1)\r\nFile size                                : 409 MiB\r\nDuration                                 : 51 min 20 s\r\nOverall bit rate mode                    : Variable\r\nOverall bit rate                         : 1 114 kb/s\r\n\r\nVideo\r\nID                                       : 2\r\nFormat                                   : AVC\r\nFormat/Info                              : Advanced Video Codec\r\nFormat profile                           :   \r\nFormat settings, CABAC                   : Yes\r\nFormat settings, ReFrames                : 3 frames\r\nCodec ID                                 : avc1\r\nCodec ID/Info                            : Advanced Video Coding\r\nDuration                                 : 51 min 20 s\r\nBit rate mode                            : Variable\r\nBit rate                                 : 982 kb/s\r\nMaximum bit rate                         : 1 000 kb/s\r\nWidth                                    : 720 pixels\r\nHeight                                   : 404 pixels\r\nDisplay aspect ratio                     : 16:9\r\nOriginal display aspect ratio            : 16:9\r\nFrame rate mode                          : Constant\r\nFrame rate                               : 25.000 FPS\r\nStandard                                 : PAL\r\nColor space                              : YUV\r\nChroma subsampling                       : 4:2:0\r\nBit depth                                : 8 bits\r\nScan type                                : Progressive\r\nBits/(Pixel*Frame)                       : 0.135\r\nStream size                              : 361 MiB (88%)\r\nWriting library                          : x264 core 112\r\nColor range                              : Limited\r\nColor primaries                          : BT.601 PAL\r\nTransfer characteristics                 : BT.470 System B, BT.470 System G\r\nMatrix coefficients                      : BT.601\r\n\r\nAudio\r\nID                                       : 1\r\nFormat                                   : AAC\r\nFormat/Info                              : Advanced Audio Codec\r\nFormat profile                           : LC\r\nCodec ID                                 : 40\r\nDuration                                 : 51 min 20 s\r\nBit rate mode                            : Variable\r\nBit rate                                 : 128 kb/s\r\nMaximum bit rate                         : 576 kb/s\r\nChannel(s)                               : 2 channels\r\nChannel positions                        : Front: L R\r\nSampling rate                            : 48.0 kHz\r\nFrame rate                               : 46.875 FPS (1024 spf)\r\nCompression mode                         : Lossy\r\nStream size                              : 47.0 MiB (11%)","torrent":{"xt":"urn:btih:d92cec09a474e9850a4c95a48eb86e8b1a948e7e","amp;dn":"Zumbo%27s+Just+Desserts+-+S01E09+-+Fruit+Dessert","amp;tr":["udp%3A%2F%2Ftracker.leechers-paradise.org%3A6969","udp%3A%2F%2Fzer0day.ch%3A1337","udp%3A%2F%2Fopen.demonii.com%3A1337","udp%3A%2F%2Ftracker.coppersurfer.tk%3A6969","udp%3A%2F%2Fexodus.desync.com%3A6969"],"infoHash":"d92cec09a474e9850a4c95a48eb86e8b1a948e7e","infoHashBuffer":{"type":"Buffer","data":[217,44,236,9,164,116,233,133,10,76,149,164,142,184,110,139,26,148,142,126]},"announce":[],"urlList":[]}}